<?xml version="1.0" standalone="no"?>
<!DOCTYPE svg PUBLIC "-//W3C//DTD SVG 20010904//EN"
 "http://www.w3.org/TR/2001/REC-SVG-20010904/DTD/svg10.dtd">
<svg version="1.0" xmlns="http://www.w3.org/2000/svg"
 width="1024.000000pt" height="1024.000000pt" viewBox="0 0 1024.000000 1024.000000"
 preserveAspectRatio="xMidYMid meet">

<g transform="translate(0.000000,1024.000000) scale(0.100000,-0.100000)"
fill="#000000" stroke="none">
<path d="M0 5120 l0 -5120 5120 0 5120 0 0 5120 0 5120 -5120 0 -5120 0 0
-5120z m6157 1192 c-3 -4 14 -8 36 -9 73 -3 124 -32 118 -66 -1 -5 3 -6 8 -2
6 3 8 12 4 20 -7 19 -4 19 46 -3 22 -10 38 -22 34 -25 -3 -4 0 -8 8 -8 8 -1
21 -2 29 -3 8 0 14 -7 12 -15 -2 -8 3 -11 11 -8 8 3 40 -15 71 -40 44 -35 54
-48 44 -55 -10 -8 -10 -9 3 -5 20 6 94 -67 83 -84 -4 -7 -3 -10 4 -5 13 8 42
-20 42 -40 0 -8 4 -14 9 -14 13 0 63 -88 57 -99 -3 -5 6 -21 19 -35 14 -15 25
-37 25 -50 0 -12 4 -26 9 -31 15 -16 41 -122 35 -139 -3 -9 -1 -16 5 -16 18 0
12 -30 -6 -31 -16 -1 -16 -2 -1 -6 12 -3 18 -20 23 -63 4 -32 4 -64 0 -70 -4
-6 -7 -31 -7 -55 0 -25 -4 -45 -10 -45 -6 0 -7 -11 -3 -27 9 -38 -34 -166 -53
-158 -13 5 -13 3 -1 -11 11 -14 11 -18 1 -21 -6 -3 -10 -8 -7 -13 3 -4 -2 -13
-10 -20 -8 -7 -15 -21 -15 -32 0 -12 -4 -17 -12 -12 -6 4 -8 3 -5 -4 9 -13
-33 -93 -45 -86 -4 3 -8 -1 -8 -8 0 -8 -6 -22 -13 -32 -11 -15 -17 -17 -35 -7
-25 13 -53 4 -31 -10 10 -6 5 -12 -18 -21 -44 -17 -42 -28 2 -14 19 6 35 17
35 23 0 7 5 13 10 13 6 0 10 -3 10 -7 -1 -14 -38 -53 -50 -53 -6 0 -9 -4 -5
-9 3 -5 -12 -22 -32 -38 -21 -15 -44 -34 -51 -40 -9 -9 -19 -10 -32 -3 -27 14
-37 12 -16 -3 17 -13 15 -16 -33 -46 -29 -17 -57 -28 -64 -25 -7 4 -9 3 -4 -1
8 -10 -87 -51 -141 -61 -26 -5 -33 -4 -27 6 4 7 -3 5 -17 -4 -14 -9 -35 -16
-49 -16 -13 0 -44 -2 -69 -4 -41 -5 -38 -3 35 25 63 23 85 27 103 20 12 -6 22
-7 22 -2 0 5 -5 11 -11 13 -6 2 11 16 38 31 28 14 54 23 58 19 5 -4 5 -2 1 5
-4 7 3 17 15 24 27 14 77 58 143 127 28 28 55 52 61 51 5 0 4 -3 -2 -6 -7 -2
-13 -9 -13 -15 0 -6 6 -5 15 2 12 10 13 16 4 27 -10 11 -8 12 7 6 17 -6 17 -5
5 10 -12 15 -11 17 6 17 29 0 58 24 48 40 -6 10 -10 8 -16 -8 -5 -12 -13 -22
-19 -22 -12 0 27 79 45 92 6 4 7 8 2 8 -4 0 4 21 18 48 14 26 28 64 31 84 4
21 9 36 13 34 3 -2 7 6 7 17 1 12 7 49 13 82 13 68 13 323 0 331 -5 3 -9 13
-9 23 0 25 -37 136 -67 198 -23 49 -24 81 -2 68 5 -4 9 1 9 9 0 9 -4 16 -8 16
-5 0 -14 12 -21 26 -9 21 -14 24 -26 14 -16 -13 -35 -6 -35 14 0 7 -13 25 -30
41 -16 15 -27 32 -24 37 3 4 1 8 -4 8 -20 0 -93 73 -87 88 4 12 3 13 -10 2
-13 -11 -14 -10 -8 5 5 14 3 17 -9 13 -9 -4 -37 8 -65 27 -54 36 -117 67 -175
85 -46 14 -48 20 -7 20 16 0 28 -3 26 -8z m453 -363 c7 -11 9 -24 5 -27 -7 -7
-35 25 -35 40 0 16 19 8 30 -13z m-596 -1388 c4 -5 -3 -7 -14 -4 -23 6 -26 13
-6 13 8 0 17 -4 20 -9z m-1304 -396 c26 -13 30 -21 30 -56 0 -34 -7 -47 -46
-89 l-47 -50 41 0 c48 0 52 -5 41 -45 l-8 -30 -108 1 -108 1 0 29 c0 22 5 30
22 32 12 2 45 25 73 51 78 73 63 121 -27 89 l-44 -16 3 36 c3 30 8 37 38 48
48 17 105 17 140 -1z m-1466 -72 c49 -84 48 -85 61 20 l6 47 40 0 c21 0 39 -2
39 -4 0 -3 -9 -50 -20 -106 -11 -56 -20 -110 -20 -121 0 -23 -36 -40 -65 -29
-11 4 -36 35 -56 70 -40 68 -42 67 -55 -22 l-6 -48 -40 0 c-37 0 -40 2 -34 23
3 12 14 70 23 129 l17 107 31 4 c16 2 31 5 32 5 1 1 22 -33 47 -75z m768 37
c-4 -25 -9 -30 -33 -30 -15 0 -30 -4 -33 -9 -3 -4 -10 -48 -15 -96 -6 -48 -12
-89 -13 -91 -10 -9 -55 -13 -67 -5 -13 8 -12 20 2 88 23 104 22 113 -7 113
-16 0 -31 -12 -49 -37 -14 -21 -37 -50 -50 -64 -14 -15 -29 -43 -32 -63 -7
-34 -9 -36 -47 -36 l-40 0 6 35 c5 26 1 46 -19 84 -24 49 -31 93 -19 125 4 11
19 16 44 16 38 0 39 0 33 -34 -3 -18 0 -43 7 -56 l12 -22 24 23 c13 12 26 37
30 55 l6 33 127 3 c69 2 129 2 132 1 3 -1 4 -16 1 -33z m1237 18 c4 -13 18
-72 31 -131 21 -93 22 -110 10 -118 -24 -14 -49 -10 -67 11 -21 24 -103 29
-103 6 0 -8 -10 -16 -22 -19 -29 -7 -238 0 -246 8 -5 4 6 76 34 228 5 24 10
27 45 27 21 0 39 -1 39 -3 0 -2 -9 -43 -20 -93 -11 -49 -20 -92 -20 -96 0 -5
25 -8 55 -8 50 0 55 -2 55 -22 0 -15 17 8 46 62 91 169 92 170 125 170 22 0
32 -6 38 -22z m215 0 c9 -35 8 -38 -14 -38 -29 0 -36 -28 -17 -62 27 -46 22
-85 -15 -118 -28 -26 -83 -48 -93 -38 -2 1 -6 15 -10 29 -6 23 -3 28 24 37 34
12 40 36 16 68 -32 42 -9 104 49 130 43 19 53 17 60 -8z m794 11 c38 -13 46
-33 26 -65 -19 -28 -22 -28 -48 -9 -27 20 -49 19 -80 -6 -20 -16 -26 -29 -26
-60 0 -32 4 -41 25 -51 20 -9 32 -8 59 5 33 15 34 15 44 -8 9 -19 8 -28 -5
-40 -22 -23 -58 -35 -100 -35 -51 0 -103 53 -103 107 0 60 37 123 89 150 49
26 73 28 119 12z m408 -81 c13 -27 28 -48 33 -48 5 0 12 29 16 65 l7 65 42 0
42 0 -26 -129 c-20 -102 -29 -131 -42 -135 -37 -9 -58 8 -95 73 -37 66 -37 66
-45 36 -4 -16 -10 -47 -13 -67 -6 -37 -7 -38 -46 -38 -34 0 -40 3 -35 18 9 32
27 127 34 182 7 51 10 55 37 61 35 7 54 -10 91 -83z m-3576 52 c0 -28 -1 -29
-57 -32 -44 -2 -58 -7 -58 -18 0 -12 11 -14 48 -12 49 3 53 -1 41 -45 -5 -19
-14 -23 -58 -25 -37 -2 -51 -7 -51 -18 0 -11 15 -16 57 -20 l56 -5 -12 -29
-12 -29 -89 2 c-49 1 -90 3 -91 4 -1 1 6 45 17 97 10 52 19 110 19 128 l0 32
95 0 95 0 0 -30z m420 23 c0 -5 -9 -46 -20 -93 -11 -47 -20 -88 -20 -92 0 -5
25 -8 55 -8 46 0 55 -3 55 -18 0 -10 -6 -26 -13 -36 -11 -15 -23 -17 -100 -10
-61 5 -87 10 -84 19 5 12 31 142 42 208 6 35 8 37 45 37 22 0 40 -3 40 -7z
m710 -23 l0 -30 -61 0 c-52 0 -60 -2 -57 -17 3 -15 12 -17 52 -15 47 3 48 3
42 -20 -3 -13 -6 -29 -6 -35 0 -9 -18 -13 -55 -13 -48 0 -55 -2 -55 -20 0 -18
7 -20 55 -20 58 0 67 -9 46 -48 -8 -14 -23 -17 -101 -14 -89 3 -92 4 -86 25 3
12 14 70 23 129 l18 108 93 0 92 0 0 -30z m155 -41 c44 -78 46 -77 60 24 l6
47 41 0 c28 0 39 -4 35 -12 -3 -11 -24 -117 -43 -224 -2 -12 -12 -24 -22 -26
-34 -9 -61 11 -94 71 -18 34 -36 61 -39 61 -7 0 -19 -62 -19 -102 0 -26 -3
-28 -40 -28 -46 0 -45 -2 -26 82 8 35 17 89 21 121 l6 57 37 0 c35 0 39 -3 77
-71z m1325 41 l0 -30 -61 0 c-52 0 -60 -2 -57 -17 3 -15 12 -17 52 -15 46 3
48 2 42 -20 -3 -13 -6 -29 -6 -35 0 -9 -18 -13 -55 -13 -48 0 -55 -2 -55 -20
0 -18 7 -20 55 -20 48 0 55 -3 55 -19 0 -38 -21 -46 -114 -43 l-88 4 6 26 c3
15 14 73 23 129 l18 103 93 0 92 0 0 -30z m230 10 c30 -30 23 -86 -16 -124
-14 -15 -15 -23 -5 -55 17 -57 15 -61 -28 -61 -38 0 -39 1 -50 46 -9 34 -16
45 -29 42 -12 -2 -18 -15 -20 -46 l-3 -42 -41 0 c-39 0 -40 1 -35 28 3 15 14
73 24 130 l17 102 83 0 c70 0 86 -3 103 -20z m570 -10 c0 -30 -1 -30 -55 -30
-30 0 -55 -4 -55 -10 0 -5 -1 -13 -2 -17 -1 -5 21 -8 48 -8 43 0 49 -2 46 -20
-6 -41 -11 -45 -62 -45 -43 0 -50 -3 -50 -20 0 -18 7 -20 56 -20 l56 0 -7 -27
c-4 -16 -8 -30 -11 -32 -4 -5 -177 -1 -182 4 -2 2 3 39 11 82 9 43 18 99 22
126 l6 47 90 0 89 0 0 -30z m708 3 c-3 -26 -6 -28 -60 -31 -38 -2 -58 -8 -62
-17 -6 -16 6 -19 67 -16 39 3 43 -3 27 -43 -8 -23 -15 -26 -60 -26 -43 0 -50
-3 -50 -20 0 -18 7 -20 56 -20 l56 0 -7 -27 c-4 -16 -8 -30 -11 -32 -4 -5
-177 -1 -182 4 -3 2 5 51 17 109 20 100 28 172 12 116 -5 -19 -15 -26 -38 -28
-30 -3 -31 -4 -42 -78 -6 -41 -11 -83 -11 -94 0 -25 -33 -42 -65 -34 -14 3
-25 7 -25 8 0 0 5 17 10 36 6 19 14 63 19 98 l7 62 -29 0 c-22 0 -28 4 -23 16
3 9 6 22 6 30 0 12 33 14 196 14 l195 0 -3 -27z m232 5 c27 -29 21 -80 -14
-117 -23 -25 -23 -28 -10 -71 8 -25 14 -46 14 -47 0 -2 -18 -3 -39 -3 -37 0
-40 2 -53 43 -8 25 -19 42 -28 42 -10 0 -16 -13 -18 -42 -3 -43 -3 -43 -43
-43 -45 0 -44 -5 -24 109 9 47 18 101 21 119 l5 32 84 0 c74 0 87 -3 105 -22z"/>
<path d="M6220 6280 c20 -13 33 -13 25 0 -3 6 -14 10 -23 10 -15 0 -15 -2 -2
-10z"/>
<path d="M6340 6230 c-8 -5 -11 -12 -8 -16 4 -3 14 1 23 10 18 17 9 21 -15 6z"/>
<path d="M6423 6177 c0 -8 11 -12 26 -11 40 2 43 3 35 15 -4 8 -9 7 -15 -2 -6
-11 -11 -11 -21 -1 -16 16 -25 15 -25 -1z"/>
<path d="M6524 6125 c11 -8 24 -15 30 -15 5 0 1 7 -10 15 -10 8 -23 14 -29 14
-5 0 -1 -6 9 -14z"/>
<path d="M6503 6093 c9 -2 23 -2 30 0 6 3 -1 5 -18 5 -16 0 -22 -2 -12 -5z"/>
<path d="M6515 6070 c-3 -6 1 -7 9 -4 18 7 21 14 7 14 -6 0 -13 -4 -16 -10z"/>
<path d="M6585 6039 c-11 -17 1 -21 15 -4 8 9 8 15 2 15 -6 0 -14 -5 -17 -11z"/>
<path d="M6630 6030 c0 -5 5 -10 11 -10 5 0 7 5 4 10 -3 6 -8 10 -11 10 -2 0
-4 -4 -4 -10z"/>
<path d="M6608 6003 c7 -3 16 -2 19 1 4 3 -2 6 -13 5 -11 0 -14 -3 -6 -6z"/>
<path d="M6670 5980 c0 -5 5 -10 11 -10 5 0 7 5 4 10 -3 6 -8 10 -11 10 -2 0
-4 -4 -4 -10z"/>
<path d="M6650 5951 c0 -12 39 -35 46 -28 3 2 -7 12 -21 21 -14 9 -25 12 -25
7z"/>
<path d="M6723 5909 c-2 -23 3 -25 10 -4 4 8 3 16 -1 19 -4 3 -9 -4 -9 -15z"/>
<path d="M6650 5835 c0 -5 5 -17 10 -25 5 -8 10 -10 10 -5 0 6 -5 17 -10 25
-5 8 -10 11 -10 5z"/>
<path d="M6692 5807 c-17 -47 -14 -59 4 -18 8 19 13 39 12 43 -2 5 -9 -6 -16
-25z"/>
<path d="M6705 5779 c-4 -6 -5 -12 -2 -15 2 -3 7 2 10 11 7 17 1 20 -8 4z"/>
<path d="M6802 5765 c0 -16 2 -22 5 -12 2 9 2 23 0 30 -3 6 -5 -1 -5 -18z"/>
<path d="M6826 5692 c-2 -4 -1 -14 5 -22 7 -12 9 -10 9 8 0 23 -5 28 -14 14z"/>
<path d="M6810 5630 c0 -16 4 -30 8 -30 5 0 7 14 4 30 -2 17 -6 30 -8 30 -2 0
-4 -13 -4 -30z"/>
<path d="M6842 5630 c0 -14 2 -19 5 -12 2 6 2 18 0 25 -3 6 -5 1 -5 -13z"/>
<path d="M6816 5245 c9 -54 19 -73 27 -51 4 9 2 16 -3 16 -6 0 -10 10 -10 23
0 12 -5 29 -11 37 -7 11 -8 4 -3 -25z"/>
<path d="M6846 5264 c-4 -9 -4 -19 -1 -22 2 -3 7 3 11 12 4 9 4 19 1 22 -2 3
-7 -3 -11 -12z"/>
<path d="M6711 5164 c0 -11 3 -14 6 -6 3 7 2 16 -1 19 -3 4 -6 -2 -5 -13z"/>
<path d="M6703 5105 c0 -22 2 -30 4 -17 2 12 2 30 0 40 -3 9 -5 -1 -4 -23z"/>
<path d="M6671 5104 c0 -11 3 -14 6 -6 3 7 2 16 -1 19 -3 4 -6 -2 -5 -13z"/>
<path d="M6750 5080 c0 -5 5 -10 11 -10 5 0 7 5 4 10 -3 6 -8 10 -11 10 -2 0
-4 -4 -4 -10z"/>
<path d="M6650 5054 c0 -8 5 -12 10 -9 6 4 8 11 5 16 -9 14 -15 11 -15 -7z"/>
<path d="M6710 5050 c0 -5 5 -10 11 -10 5 0 7 5 4 10 -3 6 -8 10 -11 10 -2 0
-4 -4 -4 -10z"/>
<path d="M6715 4950 c3 -5 8 -10 11 -10 2 0 4 5 4 10 0 6 -5 10 -11 10 -5 0
-7 -4 -4 -10z"/>
<path d="M6675 4910 c-3 -5 -2 -10 4 -10 5 0 13 5 16 10 3 6 2 10 -4 10 -5 0
-13 -4 -16 -10z"/>
<path d="M6588 4893 c7 -3 16 -2 19 1 4 3 -2 6 -13 5 -11 0 -14 -3 -6 -6z"/>
<path d="M6525 4820 c-3 -5 -1 -18 5 -27 11 -16 11 -16 6 -1 -3 10 -1 20 4 23
6 4 10 1 10 -5 0 -6 5 -8 11 -4 8 4 7 9 -2 15 -18 11 -26 11 -34 -1z"/>
<path d="M6465 4800 c-3 -5 -1 -19 5 -30 15 -28 21 -25 10 4 -5 13 -6 27 -3
30 4 3 4 6 0 6 -3 0 -9 -4 -12 -10z"/>
<path d="M6580 4790 c-8 -5 -12 -12 -9 -15 4 -3 12 1 19 10 14 17 11 19 -10 5z"/>
<path d="M6435 4760 c-3 -5 -1 -10 4 -10 6 0 11 5 11 10 0 6 -2 10 -4 10 -3 0
-8 -4 -11 -10z"/>
<path d="M6510 4744 c0 -14 3 -14 15 -4 8 7 15 14 15 16 0 2 -7 4 -15 4 -8 0
-15 -7 -15 -16z"/>
<path d="M6390 4725 c-7 -9 -8 -15 -2 -15 5 0 12 7 16 15 3 8 4 15 2 15 -2 0
-9 -7 -16 -15z"/>
<path d="M6425 4719 c-11 -16 -1 -19 13 -3 7 8 8 14 3 14 -5 0 -13 -5 -16 -11z"/>
<path d="M6354 4689 c-3 -5 6 -9 20 -9 31 0 34 6 6 13 -11 3 -23 1 -26 -4z"/>
<path d="M6415 4680 c3 -5 8 -10 11 -10 2 0 4 5 4 10 0 6 -5 10 -11 10 -5 0
-7 -4 -4 -10z"/>
<path d="M6317 4639 c7 -7 15 -10 18 -7 3 3 -2 9 -12 12 -14 6 -15 5 -6 -5z"/>
<path d="M6270 4620 c0 -5 4 -10 9 -10 6 0 13 5 16 10 3 6 -1 10 -9 10 -9 0
-16 -4 -16 -10z"/>
<path d="M6145 4590 c-3 -5 -1 -10 4 -10 6 0 11 5 11 10 0 6 -2 10 -4 10 -3 0
-8 -4 -11 -10z"/>
<path d="M5182 4043 c-17 -31 -15 -43 8 -43 21 0 24 12 11 45 -8 19 -8 19 -19
-2z"/>
<path d="M5806 4088 c-10 -38 -7 -48 13 -48 34 0 51 12 51 35 0 38 -54 49 -64
13z"/>
<path d="M7316 4094 c-13 -34 -7 -54 17 -54 27 0 47 17 47 41 0 29 -54 40 -64
13z"/>
</g>
</svg>
